<?xml version="1.0" encoding="UTF-8"?>
<svg xmlns="http://www.w3.org/2000/svg" xmlns:xlink="http://www.w3.org/1999/xlink" width="1920" height="1080" viewBox="0 0 1920 1080">
<defs>
<g>
<g id="glyph-0-0">
<path d="M 9.636719 0 L 7.148438 0 C 6.597656 -0.863281 6.097656 -1.609375 5.65625 -2.238281 C 5.210938 -2.867188 4.726562 -3.519531 4.207031 -4.1875 L 3.261719 -4.1875 L 3.261719 -1.257812 C 3.261719 -1.105469 3.285156 -0.972656 3.332031 -0.855469 C 3.382812 -0.742188 3.484375 -0.652344 3.640625 -0.59375 C 3.71875 -0.5625 3.855469 -0.535156 4.050781 -0.507812 C 4.246094 -0.480469 4.410156 -0.464844 4.542969 -0.460938 L 4.542969 0 L 0.636719 0 L 0.636719 -0.460938 C 0.742188 -0.472656 0.894531 -0.484375 1.089844 -0.507812 C 1.289062 -0.53125 1.425781 -0.558594 1.503906 -0.59375 C 1.632812 -0.648438 1.726562 -0.730469 1.785156 -0.839844 C 1.84375 -0.949219 1.875 -1.085938 1.875 -1.257812 L 1.875 -7.9375 C 1.875 -8.089844 1.851562 -8.222656 1.808594 -8.339844 C 1.765625 -8.457031 1.664062 -8.546875 1.503906 -8.605469 C 1.394531 -8.644531 1.253906 -8.679688 1.082031 -8.714844 C 0.90625 -8.746094 0.757812 -8.765625 0.636719 -8.777344 L 0.636719 -9.238281 L 4.902344 -9.238281 C 5.292969 -9.238281 5.660156 -9.199219 6.003906 -9.117188 C 6.34375 -9.039062 6.65625 -8.910156 6.933594 -8.730469 C 7.203125 -8.558594 7.417969 -8.328125 7.578125 -8.050781 C 7.738281 -7.769531 7.820312 -7.433594 7.820312 -7.039062 C 7.820312 -6.683594 7.765625 -6.367188 7.65625 -6.09375 C 7.546875 -5.820312 7.386719 -5.582031 7.175781 -5.382812 C 6.980469 -5.199219 6.746094 -5.035156 6.472656 -4.898438 C 6.199219 -4.761719 5.894531 -4.644531 5.566406 -4.550781 C 6.023438 -3.949219 6.402344 -3.441406 6.703125 -3.027344 C 7.003906 -2.613281 7.375 -2.113281 7.8125 -1.523438 C 8.003906 -1.261719 8.175781 -1.070312 8.328125 -0.945312 C 8.484375 -0.824219 8.636719 -0.722656 8.789062 -0.644531 C 8.902344 -0.589844 9.042969 -0.542969 9.210938 -0.515625 C 9.382812 -0.484375 9.523438 -0.464844 9.636719 -0.460938 L 9.636719 0 M 6.210938 -6.882812 C 6.210938 -7.445312 6.050781 -7.886719 5.730469 -8.214844 C 5.40625 -8.539062 4.953125 -8.703125 4.367188 -8.703125 L 3.261719 -8.703125 L 3.261719 -4.746094 L 4.113281 -4.746094 C 4.714844 -4.746094 5.210938 -4.9375 5.613281 -5.320312 C 6.011719 -5.703125 6.210938 -6.226562 6.210938 -6.882812 Z "/>
</g>
<g id="glyph-0-1">
<path d="M 6.171875 -1.511719 C 5.902344 -1 5.542969 -0.589844 5.089844 -0.285156 C 4.640625 0.015625 4.121094 0.167969 3.535156 0.167969 C 3.019531 0.167969 2.566406 0.078125 2.179688 -0.105469 C 1.789062 -0.285156 1.46875 -0.535156 1.21875 -0.847656 C 0.964844 -1.160156 0.777344 -1.523438 0.652344 -1.941406 C 0.53125 -2.355469 0.46875 -2.796875 0.46875 -3.261719 C 0.46875 -3.679688 0.535156 -4.085938 0.667969 -4.488281 C 0.800781 -4.890625 0.992188 -5.25 1.25 -5.574219 C 1.496094 -5.882812 1.804688 -6.128906 2.171875 -6.316406 C 2.539062 -6.507812 2.949219 -6.601562 3.40625 -6.601562 C 3.875 -6.601562 4.273438 -6.527344 4.609375 -6.378906 C 4.945312 -6.234375 5.214844 -6.03125 5.421875 -5.773438 C 5.621094 -5.53125 5.769531 -5.246094 5.867188 -4.914062 C 5.964844 -4.585938 6.015625 -4.226562 6.015625 -3.839844 L 6.015625 -3.410156 L 1.765625 -3.410156 C 1.765625 -2.988281 1.804688 -2.605469 1.882812 -2.261719 C 1.964844 -1.917969 2.09375 -1.617188 2.265625 -1.355469 C 2.433594 -1.105469 2.65625 -0.90625 2.929688 -0.757812 C 3.203125 -0.613281 3.527344 -0.539062 3.90625 -0.539062 C 4.292969 -0.539062 4.625 -0.632812 4.90625 -0.8125 C 5.183594 -0.992188 5.457031 -1.320312 5.714844 -1.789062 L 6.171875 -1.511719 M 4.734375 -3.957031 C 4.734375 -4.199219 4.710938 -4.460938 4.671875 -4.738281 C 4.628906 -5.015625 4.5625 -5.246094 4.472656 -5.433594 C 4.371094 -5.628906 4.234375 -5.792969 4.0625 -5.917969 C 3.890625 -6.042969 3.664062 -6.105469 3.390625 -6.105469 C 2.9375 -6.105469 2.558594 -5.917969 2.257812 -5.539062 C 1.953125 -5.160156 1.789062 -4.632812 1.765625 -3.957031 Z "/>
</g>
<g id="glyph-0-2">
<path d="M 4.433594 -0.28125 C 4.152344 -0.164062 3.882812 -0.0625 3.632812 0.015625 C 3.382812 0.0976562 3.074219 0.136719 2.707031 0.136719 C 2.171875 0.136719 1.792969 0 1.570312 -0.269531 C 1.351562 -0.542969 1.242188 -0.925781 1.242188 -1.417969 L 1.242188 -5.769531 L 0.0859375 -5.769531 L 0.0859375 -6.394531 L 1.269531 -6.394531 L 1.269531 -8.390625 L 2.453125 -8.390625 L 2.453125 -6.394531 L 4.296875 -6.394531 L 4.296875 -5.769531 L 2.46875 -5.769531 L 2.46875 -2.179688 C 2.46875 -1.910156 2.476562 -1.6875 2.496094 -1.507812 C 2.515625 -1.328125 2.5625 -1.167969 2.636719 -1.035156 C 2.707031 -0.910156 2.808594 -0.8125 2.949219 -0.75 C 3.089844 -0.683594 3.273438 -0.652344 3.507812 -0.652344 C 3.617188 -0.652344 3.777344 -0.660156 3.988281 -0.679688 C 4.199219 -0.699219 4.347656 -0.726562 4.433594 -0.753906 Z "/>
</g>
<g id="glyph-0-3">
<path d="M 6.730469 -3.273438 C 6.730469 -2.824219 6.660156 -2.378906 6.515625 -1.941406 C 6.375 -1.507812 6.167969 -1.136719 5.902344 -0.832031 C 5.605469 -0.484375 5.257812 -0.226562 4.863281 -0.0585938 C 4.464844 0.109375 4.023438 0.195312 3.53125 0.195312 C 3.125 0.195312 2.734375 0.117188 2.367188 -0.0351562 C 1.996094 -0.191406 1.667969 -0.414062 1.382812 -0.710938 C 1.097656 -1 0.875 -1.355469 0.707031 -1.773438 C 0.539062 -2.191406 0.457031 -2.664062 0.457031 -3.183594 C 0.457031 -4.1875 0.746094 -5.007812 1.332031 -5.644531 C 1.917969 -6.28125 2.683594 -6.601562 3.628906 -6.601562 C 4.527344 -6.601562 5.269531 -6.296875 5.855469 -5.691406 C 6.441406 -5.085938 6.730469 -4.28125 6.730469 -3.273438 M 5.382812 -3.261719 C 5.382812 -3.585938 5.351562 -3.929688 5.285156 -4.292969 C 5.222656 -4.65625 5.125 -4.964844 4.992188 -5.214844 C 4.855469 -5.484375 4.671875 -5.699219 4.445312 -5.863281 C 4.21875 -6.023438 3.941406 -6.105469 3.617188 -6.105469 C 3.28125 -6.105469 2.996094 -6.023438 2.757812 -5.859375 C 2.523438 -5.695312 2.328125 -5.46875 2.183594 -5.183594 C 2.042969 -4.917969 1.945312 -4.617188 1.886719 -4.277344 C 1.832031 -3.9375 1.804688 -3.609375 1.804688 -3.292969 C 1.804688 -2.878906 1.835938 -2.492188 1.90625 -2.140625 C 1.972656 -1.785156 2.078125 -1.46875 2.226562 -1.191406 C 2.375 -0.914062 2.5625 -0.695312 2.785156 -0.539062 C 3.007812 -0.378906 3.285156 -0.300781 3.617188 -0.300781 C 4.160156 -0.300781 4.589844 -0.5625 4.90625 -1.085938 C 5.226562 -1.613281 5.382812 -2.335938 5.382812 -3.261719 Z "/>
</g>
<g id="glyph-0-4">
<path d="M 5.382812 -5.59375 C 5.382812 -5.371094 5.328125 -5.175781 5.222656 -5.003906 C 5.113281 -4.832031 4.945312 -4.746094 4.71875 -4.746094 C 4.476562 -4.746094 4.292969 -4.808594 4.164062 -4.933594 C 4.035156 -5.0625 3.972656 -5.199219 3.972656 -5.351562 C 3.972656 -5.445312 3.980469 -5.535156 3.992188 -5.613281 C 4.007812 -5.691406 4.023438 -5.769531 4.035156 -5.847656 C 3.832031 -5.847656 3.59375 -5.765625 3.320312 -5.597656 C 3.046875 -5.433594 2.816406 -5.199219 2.625 -4.894531 L 2.625 -1.160156 C 2.625 -1.007812 2.652344 -0.882812 2.710938 -0.789062 C 2.769531 -0.691406 2.863281 -0.621094 2.988281 -0.574219 C 3.097656 -0.53125 3.238281 -0.496094 3.40625 -0.476562 C 3.578125 -0.453125 3.726562 -0.4375 3.855469 -0.429688 L 3.855469 0 L 0.46875 0 L 0.46875 -0.429688 C 0.570312 -0.4375 0.671875 -0.445312 0.777344 -0.457031 C 0.882812 -0.464844 0.976562 -0.480469 1.054688 -0.507812 C 1.175781 -0.546875 1.265625 -0.613281 1.324219 -0.710938 C 1.382812 -0.808594 1.414062 -0.9375 1.414062 -1.09375 L 1.414062 -5.054688 C 1.414062 -5.1875 1.382812 -5.320312 1.316406 -5.449219 C 1.253906 -5.578125 1.167969 -5.683594 1.054688 -5.761719 C 0.972656 -5.8125 0.875 -5.851562 0.761719 -5.875 C 0.648438 -5.898438 0.527344 -5.914062 0.398438 -5.925781 L 0.398438 -6.355469 L 2.53125 -6.496094 L 2.625 -6.40625 L 2.625 -5.5 L 2.65625 -5.5 C 2.925781 -5.851562 3.226562 -6.121094 3.554688 -6.300781 C 3.882812 -6.484375 4.1875 -6.574219 4.460938 -6.574219 C 4.734375 -6.574219 4.957031 -6.488281 5.125 -6.308594 C 5.296875 -6.128906 5.382812 -5.890625 5.382812 -5.59375 Z "/>
</g>
<g id="glyph-0-5">
<path d="M 7.558594 0 L 4.421875 0 L 4.421875 -0.429688 C 4.519531 -0.4375 4.628906 -0.445312 4.75 -0.457031 C 4.867188 -0.464844 4.96875 -0.480469 5.046875 -0.507812 C 5.167969 -0.546875 5.257812 -0.617188 5.316406 -0.710938 C 5.375 -0.808594 5.402344 -0.9375 5.402344 -1.09375 L 5.402344 -4.394531 C 5.402344 -4.851562 5.296875 -5.203125 5.082031 -5.449219 C 4.867188 -5.695312 4.601562 -5.820312 4.292969 -5.820312 C 4.0625 -5.820312 3.851562 -5.785156 3.660156 -5.710938 C 3.46875 -5.640625 3.300781 -5.554688 3.152344 -5.449219 C 3.007812 -5.347656 2.894531 -5.242188 2.808594 -5.125 C 2.726562 -5.011719 2.664062 -4.917969 2.625 -4.851562 L 2.625 -1.160156 C 2.625 -1.011719 2.652344 -0.890625 2.714844 -0.792969 C 2.777344 -0.699219 2.867188 -0.625 2.988281 -0.574219 C 3.078125 -0.53125 3.179688 -0.496094 3.285156 -0.476562 C 3.390625 -0.453125 3.5 -0.4375 3.613281 -0.429688 L 3.613281 0 L 0.46875 0 L 0.46875 -0.429688 C 0.570312 -0.4375 0.671875 -0.445312 0.777344 -0.457031 C 0.882812 -0.464844 0.976562 -0.480469 1.054688 -0.507812 C 1.175781 -0.546875 1.265625 -0.613281 1.324219 -0.710938 C 1.382812 -0.808594 1.414062 -0.9375 1.414062 -1.09375 L 1.414062 -5.054688 C 1.414062 -5.199219 1.382812 -5.335938 1.316406 -5.460938 C 1.253906 -5.582031 1.167969 -5.683594 1.054688 -5.761719 C 0.972656 -5.8125 0.875 -5.851562 0.761719 -5.875 C 0.648438 -5.898438 0.527344 -5.914062 0.398438 -5.925781 L 0.398438 -6.355469 L 2.53125 -6.496094 L 2.625 -6.40625 L 2.625 -5.5 L 2.65625 -5.5 C 2.761719 -5.605469 2.890625 -5.730469 3.046875 -5.875 C 3.203125 -6.019531 3.351562 -6.140625 3.488281 -6.230469 C 3.648438 -6.335938 3.839844 -6.421875 4.0625 -6.492188 C 4.285156 -6.558594 4.535156 -6.59375 4.8125 -6.59375 C 5.425781 -6.59375 5.882812 -6.402344 6.179688 -6.019531 C 6.480469 -5.632812 6.628906 -5.125 6.628906 -4.484375 L 6.628906 -1.144531 C 6.628906 -0.992188 6.652344 -0.871094 6.707031 -0.777344 C 6.757812 -0.683594 6.847656 -0.613281 6.972656 -0.558594 C 7.078125 -0.515625 7.167969 -0.484375 7.242188 -0.46875 C 7.320312 -0.453125 7.425781 -0.4375 7.558594 -0.429688 Z "/>
</g>
<g id="glyph-0-6">
<path d="M 2.976562 -5.554688 C 2.976562 -5.316406 2.886719 -5.105469 2.710938 -4.933594 C 2.535156 -4.761719 2.328125 -4.675781 2.082031 -4.675781 C 1.839844 -4.675781 1.628906 -4.761719 1.453125 -4.933594 C 1.277344 -5.105469 1.191406 -5.316406 1.191406 -5.554688 C 1.191406 -5.796875 1.277344 -6.007812 1.453125 -6.183594 C 1.625 -6.359375 1.835938 -6.445312 2.082031 -6.445312 C 2.332031 -6.445312 2.542969 -6.359375 2.714844 -6.183594 C 2.886719 -6.007812 2.976562 -5.796875 2.976562 -5.554688 M 2.976562 -0.75 C 2.976562 -0.503906 2.886719 -0.296875 2.710938 -0.125 C 2.535156 0.0429688 2.328125 0.128906 2.082031 0.128906 C 1.839844 0.128906 1.628906 0.0429688 1.453125 -0.125 C 1.277344 -0.296875 1.191406 -0.503906 1.191406 -0.75 C 1.191406 -0.992188 1.277344 -1.203125 1.453125 -1.375 C 1.628906 -1.550781 1.839844 -1.640625 2.082031 -1.640625 C 2.328125 -1.640625 2.535156 -1.550781 2.710938 -1.375 C 2.886719 -1.203125 2.976562 -0.992188 2.976562 -0.75 Z "/>
</g>
<g id="glyph-0-7">
</g>
<g id="glyph-0-8">
<path d="M 6.816406 0 L 0.714844 0 L 0.714844 -0.890625 C 0.832031 -1.023438 0.996094 -1.175781 1.203125 -1.34375 C 1.414062 -1.507812 1.660156 -1.691406 1.945312 -1.886719 C 2.121094 -2.003906 2.328125 -2.128906 2.570312 -2.269531 C 2.816406 -2.410156 3.089844 -2.558594 3.398438 -2.726562 C 3.742188 -2.90625 4.003906 -3.066406 4.1875 -3.207031 C 4.375 -3.34375 4.542969 -3.515625 4.695312 -3.71875 C 4.792969 -3.855469 4.875 -4.023438 4.933594 -4.222656 C 4.996094 -4.425781 5.027344 -4.714844 5.027344 -5.085938 C 5.027344 -5.628906 4.878906 -6.027344 4.589844 -6.28125 C 4.300781 -6.535156 3.925781 -6.660156 3.46875 -6.660156 C 3.1875 -6.660156 2.921875 -6.605469 2.667969 -6.492188 C 2.417969 -6.382812 2.230469 -6.230469 2.101562 -6.035156 C 2.132812 -5.894531 2.171875 -5.730469 2.21875 -5.539062 C 2.261719 -5.347656 2.285156 -5.164062 2.285156 -4.980469 C 2.285156 -4.816406 2.21875 -4.667969 2.078125 -4.539062 C 1.941406 -4.414062 1.742188 -4.347656 1.472656 -4.347656 C 1.253906 -4.347656 1.085938 -4.421875 0.96875 -4.574219 C 0.851562 -4.722656 0.792969 -4.925781 0.792969 -5.175781 C 0.792969 -5.410156 0.859375 -5.644531 0.988281 -5.882812 C 1.121094 -6.117188 1.304688 -6.335938 1.550781 -6.535156 C 1.789062 -6.730469 2.082031 -6.890625 2.433594 -7.011719 C 2.785156 -7.132812 3.167969 -7.195312 3.574219 -7.195312 C 4.464844 -7.195312 5.171875 -6.996094 5.691406 -6.597656 C 6.214844 -6.203125 6.476562 -5.671875 6.476562 -5.007812 C 6.476562 -4.691406 6.429688 -4.402344 6.335938 -4.144531 C 6.246094 -3.882812 6.09375 -3.652344 5.886719 -3.453125 C 5.65625 -3.234375 5.386719 -3.042969 5.078125 -2.886719 C 4.769531 -2.726562 4.300781 -2.507812 3.664062 -2.226562 C 3.289062 -2.054688 2.9375 -1.878906 2.609375 -1.695312 C 2.285156 -1.511719 2.019531 -1.332031 1.808594 -1.160156 L 6.816406 -1.160156 Z "/>
</g>
<g id="glyph-0-9">
<path d="M 5.488281 -3.054688 C 5.773438 -2.828125 6.011719 -2.535156 6.199219 -2.179688 C 6.390625 -1.824219 6.484375 -1.378906 6.484375 -0.847656 C 6.484375 0.0859375 6.164062 0.855469 5.527344 1.464844 C 4.890625 2.074219 4.078125 2.375 3.097656 2.375 C 2.339844 2.375 1.695312 2.195312 1.171875 1.835938 C 0.648438 1.476562 0.382812 1.058594 0.382812 0.578125 C 0.382812 0.359375 0.4375 0.164062 0.546875 0 C 0.65625 -0.164062 0.824219 -0.246094 1.046875 -0.246094 C 1.308594 -0.246094 1.507812 -0.179688 1.644531 -0.0429688 C 1.78125 0.09375 1.847656 0.242188 1.847656 0.402344 C 1.847656 0.542969 1.824219 0.714844 1.777344 0.925781 C 1.730469 1.132812 1.691406 1.285156 1.667969 1.386719 C 1.703125 1.417969 1.757812 1.457031 1.835938 1.511719 C 1.914062 1.5625 2.007812 1.613281 2.117188 1.660156 C 2.230469 1.707031 2.367188 1.75 2.527344 1.785156 C 2.691406 1.824219 2.882812 1.84375 3.097656 1.84375 C 3.375 1.84375 3.640625 1.785156 3.886719 1.671875 C 4.132812 1.558594 4.34375 1.394531 4.511719 1.171875 C 4.699219 0.929688 4.839844 0.652344 4.929688 0.339844 C 5.023438 0.03125 5.070312 -0.363281 5.070312 -0.839844 C 5.070312 -1.453125 4.902344 -1.957031 4.5625 -2.359375 C 4.21875 -2.761719 3.773438 -2.960938 3.214844 -2.960938 C 2.867188 -2.960938 2.542969 -2.898438 2.242188 -2.765625 C 1.941406 -2.636719 1.671875 -2.417969 1.433594 -2.117188 L 0.996094 -2.285156 L 1.550781 -6.984375 L 6.210938 -6.984375 L 6.210938 -5.828125 L 2.074219 -5.828125 L 1.738281 -3.066406 C 1.933594 -3.203125 2.191406 -3.34375 2.507812 -3.480469 C 2.828125 -3.617188 3.179688 -3.683594 3.558594 -3.683594 C 3.878906 -3.683594 4.207031 -3.636719 4.546875 -3.539062 C 4.886719 -3.441406 5.203125 -3.277344 5.488281 -3.054688 Z "/>
</g>
<g id="glyph-0-10">
<path d="M 2.792969 -0.226562 C 2.792969 0.0859375 2.722656 0.378906 2.582031 0.65625 C 2.441406 0.933594 2.277344 1.175781 2.097656 1.375 C 1.910156 1.582031 1.710938 1.765625 1.503906 1.925781 C 1.296875 2.085938 1.105469 2.214844 0.929688 2.304688 L 0.632812 1.867188 C 0.839844 1.738281 1.027344 1.609375 1.191406 1.476562 C 1.355469 1.347656 1.492188 1.21875 1.59375 1.085938 C 1.726562 0.933594 1.835938 0.769531 1.925781 0.59375 C 2.019531 0.414062 2.078125 0.210938 2.101562 -0.0117188 L 1.769531 -0.0117188 C 1.480469 -0.0117188 1.253906 -0.0898438 1.089844 -0.242188 C 0.925781 -0.394531 0.847656 -0.597656 0.847656 -0.851562 C 0.847656 -1.035156 0.921875 -1.210938 1.066406 -1.382812 C 1.214844 -1.554688 1.417969 -1.640625 1.671875 -1.640625 C 2.046875 -1.640625 2.328125 -1.515625 2.511719 -1.265625 C 2.699219 -1.015625 2.792969 -0.671875 2.792969 -0.226562 Z "/>
</g>
<g id="glyph-0-11">
<path d="M 6.6875 -6.082031 C 6.964844 -5.746094 7.171875 -5.355469 7.308594 -4.90625 C 7.445312 -4.457031 7.511719 -3.988281 7.511719 -3.496094 C 7.511719 -2.90625 7.429688 -2.378906 7.257812 -1.910156 C 7.089844 -1.445312 6.859375 -1.058594 6.5625 -0.75 C 6.257812 -0.433594 5.898438 -0.191406 5.480469 -0.03125 C 5.066406 0.128906 4.601562 0.207031 4.089844 0.207031 C 3.527344 0.207031 3.03125 0.113281 2.589844 -0.0703125 C 2.152344 -0.257812 1.796875 -0.515625 1.523438 -0.839844 C 1.238281 -1.179688 1.023438 -1.574219 0.882812 -2.027344 C 0.742188 -2.480469 0.671875 -2.972656 0.671875 -3.496094 C 0.671875 -4.011719 0.738281 -4.488281 0.875 -4.921875 C 1.011719 -5.355469 1.226562 -5.75 1.515625 -6.101562 C 1.792969 -6.4375 2.152344 -6.707031 2.589844 -6.902344 C 3.03125 -7.097656 3.53125 -7.195312 4.09375 -7.195312 C 4.691406 -7.195312 5.199219 -7.09375 5.625 -6.894531 C 6.050781 -6.695312 6.402344 -6.421875 6.6875 -6.082031 M 6.074219 -3.496094 C 6.074219 -4.527344 5.898438 -5.328125 5.542969 -5.898438 C 5.191406 -6.46875 4.710938 -6.75 4.101562 -6.75 C 3.484375 -6.75 3 -6.46875 2.644531 -5.898438 C 2.289062 -5.328125 2.109375 -4.527344 2.109375 -3.496094 C 2.109375 -2.515625 2.28125 -1.726562 2.621094 -1.128906 C 2.960938 -0.53125 3.449219 -0.234375 4.089844 -0.234375 C 4.726562 -0.234375 5.21875 -0.53125 5.558594 -1.128906 C 5.902344 -1.726562 6.074219 -2.515625 6.074219 -3.496094 Z "/>
</g>
<g id="glyph-0-12">
<path d="M 5.128906 -7.050781 C 5.128906 -6.285156 4.925781 -5.695312 4.511719 -5.273438 C 4.097656 -4.851562 3.566406 -4.640625 2.917969 -4.640625 C 2.265625 -4.640625 1.734375 -4.851562 1.324219 -5.273438 C 0.914062 -5.695312 0.710938 -6.285156 0.710938 -7.050781 C 0.710938 -7.769531 0.910156 -8.351562 1.3125 -8.796875 C 1.714844 -9.238281 2.25 -9.460938 2.921875 -9.460938 C 3.585938 -9.460938 4.121094 -9.238281 4.523438 -8.796875 C 4.929688 -8.351562 5.128906 -7.769531 5.128906 -7.050781 M 4.03125 -7.050781 C 4.03125 -7.617188 3.9375 -8.082031 3.75 -8.441406 C 3.5625 -8.804688 3.289062 -8.984375 2.921875 -8.984375 C 2.550781 -8.984375 2.269531 -8.804688 2.085938 -8.441406 C 1.902344 -8.082031 1.808594 -7.617188 1.808594 -7.050781 C 1.808594 -6.472656 1.902344 -6.003906 2.089844 -5.648438 C 2.277344 -5.292969 2.550781 -5.117188 2.917969 -5.117188 C 3.28125 -5.117188 3.558594 -5.292969 3.746094 -5.648438 C 3.933594 -6.003906 4.03125 -6.472656 4.03125 -7.050781 M 10.1875 -2.199219 C 10.1875 -1.4375 9.984375 -0.84375 9.570312 -0.421875 C 9.15625 -0.00390625 8.625 0.207031 7.976562 0.207031 C 7.324219 0.207031 6.792969 -0.00390625 6.382812 -0.421875 C 5.972656 -0.84375 5.769531 -1.4375 5.769531 -2.199219 C 5.769531 -2.921875 5.96875 -3.503906 6.371094 -3.945312 C 6.773438 -4.386719 7.308594 -4.609375 7.980469 -4.609375 C 8.644531 -4.609375 9.179688 -4.386719 9.582031 -3.945312 C 9.988281 -3.503906 10.1875 -2.921875 10.1875 -2.199219 M 9.089844 -2.199219 C 9.089844 -2.765625 8.996094 -3.230469 8.808594 -3.59375 C 8.621094 -3.953125 8.347656 -4.132812 7.980469 -4.132812 C 7.609375 -4.132812 7.328125 -3.953125 7.144531 -3.59375 C 6.960938 -3.230469 6.867188 -2.765625 6.867188 -2.199219 C 6.867188 -1.621094 6.960938 -1.152344 7.148438 -0.800781 C 7.335938 -0.445312 7.609375 -0.265625 7.976562 -0.265625 C 8.339844 -0.265625 8.617188 -0.445312 8.804688 -0.800781 C 8.992188 -1.152344 9.089844 -1.621094 9.089844 -2.199219 M 9.757812 -9.269531 L 2.078125 0 L 1.183594 0 L 8.847656 -9.269531 Z "/>
</g>
<g id="glyph-0-13">
<path d="M 3.582031 0 L 0.480469 0 L 0.480469 -0.429688 C 0.582031 -0.4375 0.683594 -0.445312 0.789062 -0.457031 C 0.898438 -0.464844 0.988281 -0.480469 1.066406 -0.507812 C 1.1875 -0.546875 1.277344 -0.613281 1.335938 -0.710938 C 1.394531 -0.808594 1.425781 -0.9375 1.425781 -1.09375 L 1.425781 -5.054688 C 1.425781 -5.191406 1.394531 -5.320312 1.332031 -5.433594 C 1.269531 -5.546875 1.179688 -5.644531 1.066406 -5.722656 C 0.984375 -5.773438 0.867188 -5.820312 0.710938 -5.855469 C 0.554688 -5.894531 0.410156 -5.914062 0.28125 -5.925781 L 0.28125 -6.355469 L 2.546875 -6.496094 L 2.636719 -6.40625 L 2.636719 -1.171875 C 2.636719 -1.019531 2.664062 -0.894531 2.722656 -0.792969 C 2.78125 -0.695312 2.875 -0.621094 3 -0.574219 C 3.09375 -0.535156 3.1875 -0.503906 3.277344 -0.476562 C 3.367188 -0.453125 3.46875 -0.4375 3.582031 -0.429688 L 3.582031 0 M 2.765625 -9.03125 C 2.765625 -8.78125 2.683594 -8.566406 2.523438 -8.382812 C 2.359375 -8.199219 2.160156 -8.105469 1.921875 -8.105469 C 1.699219 -8.105469 1.507812 -8.195312 1.34375 -8.367188 C 1.179688 -8.546875 1.101562 -8.746094 1.101562 -8.972656 C 1.101562 -9.210938 1.179688 -9.417969 1.34375 -9.597656 C 1.507812 -9.773438 1.699219 -9.863281 1.921875 -9.863281 C 2.167969 -9.863281 2.371094 -9.78125 2.527344 -9.613281 C 2.6875 -9.445312 2.765625 -9.25 2.765625 -9.03125 Z "/>
</g>
<g id="glyph-0-14">
<path d="M 4.707031 -3.144531 C 4.886719 -2.988281 5.023438 -2.808594 5.117188 -2.605469 C 5.210938 -2.398438 5.261719 -2.152344 5.261719 -1.855469 C 5.261719 -1.261719 5.039062 -0.773438 4.59375 -0.398438 C 4.148438 -0.0195312 3.570312 0.167969 2.863281 0.167969 C 2.492188 0.167969 2.148438 0.101562 1.832031 -0.03125 C 1.519531 -0.167969 1.292969 -0.289062 1.160156 -0.402344 L 1.027344 0.0195312 L 0.539062 0.0195312 L 0.476562 -2.214844 L 0.925781 -2.214844 C 0.960938 -2.042969 1.03125 -1.84375 1.144531 -1.617188 C 1.257812 -1.390625 1.394531 -1.1875 1.554688 -1.003906 C 1.726562 -0.8125 1.929688 -0.652344 2.164062 -0.523438 C 2.402344 -0.390625 2.667969 -0.324219 2.960938 -0.324219 C 3.378906 -0.324219 3.699219 -0.421875 3.925781 -0.609375 C 4.152344 -0.800781 4.265625 -1.070312 4.265625 -1.425781 C 4.265625 -1.609375 4.226562 -1.765625 4.15625 -1.898438 C 4.085938 -2.03125 3.980469 -2.144531 3.839844 -2.246094 C 3.699219 -2.347656 3.523438 -2.4375 3.3125 -2.515625 C 3.105469 -2.597656 2.875 -2.675781 2.617188 -2.753906 C 2.414062 -2.816406 2.1875 -2.898438 1.9375 -3.003906 C 1.6875 -3.109375 1.472656 -3.234375 1.296875 -3.378906 C 1.105469 -3.53125 0.949219 -3.71875 0.828125 -3.9375 C 0.707031 -4.160156 0.644531 -4.421875 0.644531 -4.71875 C 0.644531 -5.246094 0.839844 -5.691406 1.230469 -6.054688 C 1.621094 -6.417969 2.144531 -6.601562 2.800781 -6.601562 C 3.050781 -6.601562 3.308594 -6.570312 3.570312 -6.503906 C 3.832031 -6.4375 4.046875 -6.359375 4.210938 -6.269531 L 4.363281 -6.609375 L 4.832031 -6.609375 L 4.929688 -4.542969 L 4.480469 -4.542969 C 4.386719 -5.007812 4.191406 -5.382812 3.890625 -5.671875 C 3.589844 -5.960938 3.21875 -6.105469 2.785156 -6.105469 C 2.429688 -6.105469 2.152344 -6.015625 1.945312 -5.839844 C 1.742188 -5.660156 1.640625 -5.441406 1.640625 -5.1875 C 1.640625 -4.992188 1.675781 -4.832031 1.742188 -4.699219 C 1.808594 -4.570312 1.910156 -4.460938 2.042969 -4.367188 C 2.175781 -4.28125 2.339844 -4.199219 2.535156 -4.125 C 2.734375 -4.046875 2.976562 -3.960938 3.269531 -3.867188 C 3.554688 -3.777344 3.824219 -3.667969 4.078125 -3.546875 C 4.332031 -3.425781 4.542969 -3.292969 4.707031 -3.144531 Z "/>
</g>
<g id="glyph-0-15">
<path d="M 3.4375 0.167969 C 2.507812 0.167969 1.78125 -0.140625 1.257812 -0.753906 C 0.730469 -1.371094 0.46875 -2.199219 0.46875 -3.234375 C 0.46875 -3.6875 0.539062 -4.109375 0.679688 -4.5 C 0.820312 -4.894531 1.027344 -5.25 1.296875 -5.574219 C 1.550781 -5.882812 1.871094 -6.128906 2.257812 -6.316406 C 2.644531 -6.507812 3.066406 -6.601562 3.523438 -6.601562 C 4.152344 -6.601562 4.664062 -6.449219 5.058594 -6.148438 C 5.453125 -5.847656 5.652344 -5.4375 5.652344 -4.914062 C 5.652344 -4.699219 5.597656 -4.507812 5.496094 -4.339844 C 5.390625 -4.171875 5.21875 -4.089844 4.980469 -4.089844 C 4.722656 -4.089844 4.527344 -4.152344 4.382812 -4.285156 C 4.242188 -4.414062 4.171875 -4.558594 4.171875 -4.71875 C 4.171875 -4.914062 4.199219 -5.113281 4.25 -5.316406 C 4.304688 -5.523438 4.332031 -5.675781 4.34375 -5.769531 C 4.265625 -5.902344 4.148438 -5.992188 3.996094 -6.039062 C 3.839844 -6.085938 3.675781 -6.105469 3.5 -6.105469 C 3.289062 -6.105469 3.09375 -6.0625 2.902344 -5.972656 C 2.714844 -5.882812 2.53125 -5.71875 2.355469 -5.480469 C 2.195312 -5.265625 2.066406 -4.972656 1.964844 -4.601562 C 1.867188 -4.234375 1.816406 -3.792969 1.816406 -3.28125 C 1.816406 -2.472656 1.996094 -1.816406 2.351562 -1.304688 C 2.710938 -0.796875 3.179688 -0.539062 3.761719 -0.539062 C 4.179688 -0.539062 4.53125 -0.644531 4.816406 -0.847656 C 5.101562 -1.054688 5.363281 -1.359375 5.605469 -1.769531 L 6.023438 -1.496094 C 5.734375 -0.984375 5.359375 -0.578125 4.890625 -0.28125 C 4.421875 0.0195312 3.9375 0.167969 3.4375 0.167969 Z "/>
</g>
<g id="glyph-0-16">
<path d="M 7 -2.996094 C 7 -2.546875 6.917969 -2.125 6.753906 -1.730469 C 6.589844 -1.335938 6.375 -1 6.101562 -0.722656 C 5.785156 -0.40625 5.433594 -0.171875 5.046875 -0.0195312 C 4.664062 0.132812 4.265625 0.207031 3.847656 0.207031 C 3.367188 0.207031 2.929688 0.121094 2.539062 -0.0585938 C 2.148438 -0.234375 1.816406 -0.488281 1.542969 -0.8125 C 1.265625 -1.144531 1.050781 -1.546875 0.898438 -2.023438 C 0.746094 -2.5 0.671875 -3.035156 0.671875 -3.628906 C 0.671875 -5.179688 1.132812 -6.484375 2.054688 -7.546875 C 2.976562 -8.609375 4.210938 -9.246094 5.761719 -9.460938 L 5.878906 -8.875 L 5.292969 -8.769531 C 4.351562 -8.464844 3.621094 -7.992188 3.109375 -7.351562 C 2.59375 -6.707031 2.261719 -5.929688 2.109375 -5.015625 C 2.484375 -5.339844 2.851562 -5.570312 3.214844 -5.703125 C 3.582031 -5.835938 3.964844 -5.90625 4.367188 -5.90625 C 5.09375 -5.90625 5.710938 -5.628906 6.226562 -5.074219 C 6.742188 -4.515625 7 -3.824219 7 -2.996094 M 5.585938 -2.824219 C 5.585938 -3.527344 5.425781 -4.09375 5.101562 -4.519531 C 4.777344 -4.945312 4.34375 -5.15625 3.800781 -5.15625 C 3.476562 -5.15625 3.171875 -5.09375 2.894531 -4.972656 C 2.613281 -4.851562 2.34375 -4.648438 2.082031 -4.363281 C 2.078125 -4.308594 2.074219 -4.1875 2.0625 -4 C 2.054688 -3.8125 2.050781 -3.664062 2.050781 -3.554688 C 2.050781 -2.539062 2.21875 -1.742188 2.546875 -1.167969 C 2.878906 -0.59375 3.316406 -0.304688 3.859375 -0.304688 C 4.378906 -0.304688 4.792969 -0.53125 5.109375 -0.980469 C 5.425781 -1.429688 5.585938 -2.042969 5.585938 -2.824219 Z "/>
</g>
<g id="glyph-0-17">
<path d="M 6.699219 -6.5625 L 2.0625 2.375 L 1.242188 2.375 L 5.605469 -5.890625 L 3.054688 -5.890625 C 2.675781 -5.890625 2.378906 -5.886719 2.167969 -5.878906 C 1.957031 -5.871094 1.761719 -5.828125 1.582031 -5.753906 C 1.449219 -5.699219 1.328125 -5.554688 1.21875 -5.320312 C 1.113281 -5.089844 1.03125 -4.792969 0.976562 -4.433594 L 0.578125 -4.433594 L 0.578125 -6.984375 L 6.699219 -6.984375 Z "/>
</g>
</g>
</defs>
<g fill="rgb(41.176471%, 61.176471%, 32.156863%)" fill-opacity="1">
<use xlink:href="#glyph-0-0" x="30" y="32.226562"/>
<use xlink:href="#glyph-0-1" x="39.355469" y="32.226562"/>
<use xlink:href="#glyph-0-2" x="45.800781" y="32.226562"/>
<use xlink:href="#glyph-0-3" x="50.40332" y="32.226562"/>
<use xlink:href="#glyph-0-4" x="57.59082" y="32.226562"/>
<use xlink:href="#glyph-0-5" x="63.052734" y="32.226562"/>
<use xlink:href="#glyph-0-3" x="70.929688" y="32.226562"/>
<use xlink:href="#glyph-0-6" x="78.117188" y="32.226562"/>
<use xlink:href="#glyph-0-7" x="82.28418" y="32.226562"/>
<use xlink:href="#glyph-0-8" x="85.5" y="32.226562"/>
<use xlink:href="#glyph-0-9" x="92.947266" y="32.226562"/>
<use xlink:href="#glyph-0-10" x="99.991211" y="32.226562"/>
<use xlink:href="#glyph-0-11" x="103.584961" y="32.226562"/>
<use xlink:href="#glyph-0-12" x="111.768555" y="32.226562"/>
<use xlink:href="#glyph-0-7" x="122.666992" y="32.226562"/>
<use xlink:href="#glyph-0-7" x="125.882812" y="32.226562"/>
<use xlink:href="#glyph-0-7" x="129.098633" y="32.226562"/>
<use xlink:href="#glyph-0-0" x="132.314453" y="32.226562"/>
<use xlink:href="#glyph-0-13" x="141.669922" y="32.226562"/>
<use xlink:href="#glyph-0-14" x="145.576172" y="32.226562"/>
<use xlink:href="#glyph-0-15" x="151.337891" y="32.226562"/>
<use xlink:href="#glyph-0-3" x="157.392578" y="32.226562"/>
<use xlink:href="#glyph-0-6" x="164.580078" y="32.226562"/>
<use xlink:href="#glyph-0-7" x="168.74707" y="32.226562"/>
<use xlink:href="#glyph-0-8" x="171.962891" y="32.226562"/>
<use xlink:href="#glyph-0-16" x="179.410156" y="32.226562"/>
<use xlink:href="#glyph-0-10" x="186.955078" y="32.226562"/>
<use xlink:href="#glyph-0-17" x="190.548828" y="32.226562"/>
<use xlink:href="#glyph-0-12" x="197.248047" y="32.226562"/>
</g>
</svg>
